Coordinates
version=1
nRows=27
nColumns=12
inDegrees=yes

Units are S.I. units (second, meters, Newtons, ...)
Angles are in degrees

endheader
time	SC_y	SC_z	SC_x	AC_y	AC_z	AC_x	GH_y	GH_z	GH_yy	EL_x	PS_y
       0.0              -17.55          36.06          67.19          63.46         -6.026         -17.26         -76.69          24.78         -10.63          102.1          99.33
   0.03304              -17.55          36.05          67.19          63.46         -6.025         -17.26          -76.7          24.78         -10.62          102.1          99.31
   0.06609              -17.55          36.05          67.19          63.47         -6.024         -17.26         -76.71          24.78         -10.61          102.1           99.3
   0.09913              -17.55          36.05          67.19          63.47         -6.023         -17.26         -76.71          24.78          -10.6          102.1          99.29
    0.1322              -17.55          36.04          67.19          63.47         -6.022         -17.25         -76.72          24.78         -10.59          102.1          99.27
    0.1652              -17.55          36.04          67.19          63.47         -6.021         -17.25         -76.73          24.77         -10.58          102.1          99.25
    0.1983              -17.55          36.04          67.19          63.47          -6.02         -17.25         -76.74          24.77         -10.57          102.1          99.24
    0.2313              -17.56          36.03          67.19          63.47         -6.018         -17.25         -76.75          24.77         -10.56          102.1          99.22
    0.2643              -17.56          36.03           67.2          63.47         -6.017         -17.24         -76.76          24.77         -10.55          102.2           99.2
    0.2974              -17.56          36.03           67.2          63.47         -6.016         -17.24         -76.77          24.77         -10.54          102.2          99.18
    0.3304              -17.56          36.02           67.2          63.47         -6.014         -17.24         -76.79          24.77         -10.52          102.2          99.15
    0.3635              -17.56          36.02           67.2          63.47         -6.012         -17.23          -76.8          24.77         -10.51          102.2          99.13
    0.3965              -17.56          36.01           67.2          63.47         -6.011         -17.23         -76.81          24.77         -10.49          102.2           99.1
    0.4296              -17.57          36.01          67.21          63.47         -6.009         -17.22         -76.83          24.77         -10.48          102.2          99.07
    0.4626              -17.57           36.0          67.21          63.47         -6.006         -17.22         -76.85          24.77         -10.46          102.2          99.04
    0.4957              -17.57          35.99          67.21          63.47         -6.004         -17.21         -76.86          24.77         -10.44          102.2          99.01
    0.5287              -17.57          35.99          67.22          63.47         -6.002         -17.21         -76.88          24.76         -10.42          102.2          98.97
    0.5617              -17.58          35.98          67.22          63.48         -5.999          -17.2         -76.91          24.76         -10.39          102.2          98.93
    0.5948              -17.58          35.97          67.22          63.48         -5.996         -17.19         -76.93          24.76         -10.37          102.2          98.89
    0.6278              -17.58          35.96          67.23          63.48         -5.992         -17.19         -76.95          24.76         -10.34          102.3          98.84
    0.6609              -17.59          35.95          67.23          63.48         -5.989         -17.18         -76.98          24.76         -10.31          102.3          98.79
    0.6939              -17.59          35.94          67.24          63.48         -5.985         -17.17         -77.01          24.76         -10.27          102.3          98.73
     0.727              -17.59          35.93          67.24          63.48         -5.981         -17.16         -77.05          24.75         -10.24          102.3          98.67
      0.76               -17.6          35.91          67.25          63.49         -5.976         -17.15         -77.09          24.75          -10.2          102.3           98.6
     0.793              -17.61           35.9          67.26          63.49          -5.97         -17.14         -77.13          24.75         -10.15          102.4          98.52
    0.8261              -17.61          35.88          67.26          63.49         -5.964         -17.12         -77.18          24.75          -10.1          102.4          98.44
    0.8591              -17.62          35.86          67.27          63.49         -5.957         -17.11         -77.23          24.74         -10.04          102.4          98.34
